<svg id="Capa_1" data-name="Capa 1" xmlns="http://www.w3.org/2000/svg" viewBox="0 0 114.22 25.36"><defs><style>.cls-1{fill:#fff;}.cls-2{fill:#b7bc00;}.cls-3{fill:#c22821;}.cls-4{fill:#4da6de;}.cls-5{fill:#8a4975;}.cls-6{fill:none;stroke:#fff;stroke-linecap:round;stroke-miterlimit:10;stroke-width:0.3px;}</style></defs><title>Mesa de trabajo 1</title><path class="cls-1" d="M23.65,12.92A9.92,9.92,0,1,1,13.74,3a9.91,9.91,0,0,1,9.91,9.92"/><path class="cls-2" d="M23.14,12.92a9.4,9.4,0,1,1-9.4-9.41,9.4,9.4,0,0,1,9.4,9.41"/><path class="cls-3" d="M4.34,12.92a9.5,9.5,0,0,0,.21,2H22.92a9.25,9.25,0,0,0,0-4H4.55a9.52,9.52,0,0,0-.21,2"/><path class="cls-4" d="M11.73,22.1a9.52,9.52,0,0,0,2,.22,9.36,9.36,0,0,0,2-.22V3.73a9.36,9.36,0,0,0-2-.22,9.52,9.52,0,0,0-2,.22Z"/><rect class="cls-5" x="11.73" y="10.91" width="4.01" height="4.01"/><path class="cls-1" d="M35.19,11.25h-.37A2.08,2.08,0,0,0,32.49,9.3c-2.27,0-3.06,2-3.06,4,0,1.47.53,3.95,3,3.95A2.46,2.46,0,0,0,35,15.05h.37l-.17,2a6.56,6.56,0,0,1-2.68.58,4.59,4.59,0,0,1-3.31-1,4.54,4.54,0,0,1-1.16-3.3,4.59,4.59,0,0,1,1.11-3.2,4.46,4.46,0,0,1,3.43-1.25,6.37,6.37,0,0,1,2.58.47Z"/><path class="cls-1" d="M42.63,9.06v2h-.37c-.17-1.26-.45-1.57-1.84-1.57H39.23c-.39,0-.45,0-.45.44v2.95h1.71c1,0,1.08-.3,1.19-1H42v2.57h-.36c-.11-.77-.16-1.06-1.19-1.06H38.78V16c0,.6,0,.8.3.91a4.11,4.11,0,0,0,1.27.12c1.54,0,2.08-.19,2.36-1.68h.37l-.15,2.11H36.48v-.35c1.07-.08,1.1-.1,1.1-.78V10.19c0-.68,0-.71-1.1-.78V9.06Z"/><path class="cls-1" d="M52.71,9.06v.35c-1.06.07-1.1.1-1.1.78v4.18a4.3,4.3,0,0,1-.33,1.81,3.06,3.06,0,0,1-3,1.48,3.06,3.06,0,0,1-3-1.48,4.34,4.34,0,0,1-.33-1.78V10.19c0-.68,0-.71-1.1-.78V9.06h3.4v.35c-1.06.07-1.1.1-1.1.78v3.94a3.94,3.94,0,0,0,.55,2.38,1.93,1.93,0,0,0,1.61.73,2,2,0,0,0,1.62-.73,3.94,3.94,0,0,0,.55-2.38V10.19c0-.68,0-.71-1.1-.78V9.06Z"/><path class="cls-1" d="M59.83,11.41l0-.17.32,0a.26.26,0,0,0,.16-.07.51.51,0,0,0,.09-.21l.7-3.07a.69.69,0,0,0,0-.13A.15.15,0,0,0,61,7.55l-.34,0,0-.17h1.6l0,.17-.32,0a.19.19,0,0,0-.16.07.5.5,0,0,0-.09.22L61,10.92a.69.69,0,0,0,0,.13.14.14,0,0,0,.15.16l.34,0,0,.17Z"/><path class="cls-1" d="M62.09,11.48l.61-2.39a.86.86,0,0,0,0-.17q0-.11-.12-.12l-.36,0,0-.14,1.07-.17,0,0L63,9.78h0a2.8,2.8,0,0,1,.31-.5,2.57,2.57,0,0,1,.38-.42,1.76,1.76,0,0,1,.41-.28.94.94,0,0,1,.42-.11.45.45,0,0,1,.36.13A.48.48,0,0,1,65,9a1.8,1.8,0,0,1-.05.37l-.46,1.53a1,1,0,0,0,0,.2c0,.08,0,.12.1.12a.22.22,0,0,0,.13-.06.78.78,0,0,0,.15-.16l.13-.2a1.36,1.36,0,0,0,.11-.2l.14.08a1.8,1.8,0,0,1-.4.61.79.79,0,0,1-.56.24.32.32,0,0,1-.25-.09.33.33,0,0,1-.08-.25,1.12,1.12,0,0,1,0-.24l.5-1.71a.55.55,0,0,0,0-.17c0-.16-.07-.24-.22-.24a.61.61,0,0,0-.35.13,1.87,1.87,0,0,0-.36.34,3.58,3.58,0,0,0-.31.45,4.65,4.65,0,0,0-.23.43c-.07.18-.14.36-.2.54s-.13.42-.22.74Z"/><path class="cls-1" d="M67.46,8.62a.4.4,0,0,1,.19.31.23.23,0,0,1-.09.19.29.29,0,0,1-.19.08.16.16,0,0,1-.16-.12c-.12-.27-.28-.4-.47-.4a.35.35,0,0,0-.26.11.39.39,0,0,0-.1.27.67.67,0,0,0,.08.29,1.46,1.46,0,0,0,.33.35,1.7,1.7,0,0,1,.42.45.83.83,0,0,1,.12.44.81.81,0,0,1-.28.63,1,1,0,0,1-.73.26,1.08,1.08,0,0,1-.64-.18.48.48,0,0,1-.24-.38.33.33,0,0,1,.09-.22.29.29,0,0,1,.22-.09c.09,0,.15.05.18.17a.81.81,0,0,0,.22.36.45.45,0,0,0,.31.13.41.41,0,0,0,.42-.44.71.71,0,0,0-.11-.35,1.28,1.28,0,0,0-.29-.33,1.75,1.75,0,0,1-.38-.4A.75.75,0,0,1,66,9.33a.82.82,0,0,1,.26-.61.93.93,0,0,1,.69-.25A.88.88,0,0,1,67.46,8.62Z"/><path class="cls-1" d="M69.17,8.76l-.52,2.13a.93.93,0,0,0,0,.14c0,.1,0,.14.11.14a.29.29,0,0,0,.15-.06l.17-.15c0-.07.11-.13.16-.21a1.67,1.67,0,0,0,.13-.2l.13.1a2,2,0,0,1-.47.6.94.94,0,0,1-.6.23.3.3,0,0,1-.24-.09.37.37,0,0,1-.07-.25,1.12,1.12,0,0,1,0-.24l.53-2.14h-.49l.07-.22h.47l.08-.28.56-.45.07,0-.2.69H70l-.07.22Z"/><path class="cls-1" d="M71.23,8.47l0,0-.64,2.35a.88.88,0,0,0,0,.2q0,.12.09.12a.22.22,0,0,0,.13-.06A.78.78,0,0,0,71,11l.13-.2c0-.07.08-.14.12-.2l.14.08a2,2,0,0,1-.41.61.75.75,0,0,1-.54.24.36.36,0,0,1-.26-.09.39.39,0,0,1-.08-.25,1.12,1.12,0,0,1,0-.24l.5-1.83a.5.5,0,0,0,0-.15q0-.11-.15-.12l-.33,0,0-.14Zm.19-1.16a.3.3,0,0,1,.09.24.39.39,0,0,1-.1.28.37.37,0,0,1-.27.11.32.32,0,0,1-.23-.09.3.3,0,0,1-.09-.24.39.39,0,0,1,.1-.27.38.38,0,0,1,.28-.11A.29.29,0,0,1,71.42,7.31Z"/><path class="cls-1" d="M73,8.76l-.52,2.13a.93.93,0,0,0,0,.14c0,.1,0,.14.11.14a.24.24,0,0,0,.14-.06A.8.8,0,0,0,72.9,11l.17-.21.13-.2.13.1a2.2,2.2,0,0,1-.47.6,1,1,0,0,1-.61.23.29.29,0,0,1-.23-.09.37.37,0,0,1-.08-.25.75.75,0,0,1,0-.24l.52-2.14H72l.06-.22h.48l.07-.28.57-.45.07,0-.2.69h.74l-.06.22Z"/><path class="cls-1" d="M76.88,8.47l-.63,2.39a.67.67,0,0,0,0,.18c0,.09,0,.13.11.13a.22.22,0,0,0,.13-.06A.73.73,0,0,0,76.6,11a2.43,2.43,0,0,0,.14-.2,1.32,1.32,0,0,0,.12-.2l.14.09a1.9,1.9,0,0,1-.42.6.78.78,0,0,1-.55.24.29.29,0,0,1-.32-.33,1.17,1.17,0,0,1,.05-.3l.19-.67h0a3.66,3.66,0,0,1-.31.49,3.13,3.13,0,0,1-.38.42,1.76,1.76,0,0,1-.41.28,1,1,0,0,1-.43.11.41.41,0,0,1-.34-.13A.5.5,0,0,1,74,11a1.54,1.54,0,0,1,.06-.38l.41-1.54a.86.86,0,0,0,0-.17q0-.11-.12-.12l-.36,0,0-.14,1.07-.17,0,0-.56,2.16a1.76,1.76,0,0,0,0,.27c0,.16.06.24.19.24a.62.62,0,0,0,.35-.12,1.53,1.53,0,0,0,.35-.33,2.88,2.88,0,0,0,.31-.44q.14-.24.24-.48c.07-.16.13-.33.19-.5s.13-.42.23-.76Z"/><path class="cls-1" d="M78.62,8.76l-.52,2.13a.76.76,0,0,0,0,.14c0,.1,0,.14.1.14a.29.29,0,0,0,.15-.06,1.14,1.14,0,0,0,.17-.15,1.66,1.66,0,0,0,.16-.21,1.86,1.86,0,0,0,.14-.2l.12.1a1.87,1.87,0,0,1-.47.6.92.92,0,0,1-.6.23.3.3,0,0,1-.24-.09.37.37,0,0,1-.07-.25,1.12,1.12,0,0,1,0-.24l.53-2.14h-.49l.07-.22h.47l.08-.28.57-.45.07,0-.2.69h.74l-.06.22Z"/><path class="cls-1" d="M81.43,8.52a1,1,0,0,1,.34.17A.8.8,0,0,1,82,9a1.14,1.14,0,0,1,.09.48,2.37,2.37,0,0,1-.09.61,2.21,2.21,0,0,1-.28.63,1.67,1.67,0,0,1-.54.55,1.46,1.46,0,0,1-.78.2,1.06,1.06,0,0,1-.8-.29,1.08,1.08,0,0,1-.27-.77,2,2,0,0,1,.08-.55,2.12,2.12,0,0,1,.28-.64,1.61,1.61,0,0,1,.53-.54,1.47,1.47,0,0,1,.83-.22A1.57,1.57,0,0,1,81.43,8.52Zm-.87.36a1.66,1.66,0,0,0-.36.52,3,3,0,0,0-.22.66,2.84,2.84,0,0,0-.08.59c0,.42.18.62.53.62a.62.62,0,0,0,.49-.23,1.62,1.62,0,0,0,.35-.57,4.6,4.6,0,0,0,.2-.67,3.32,3.32,0,0,0,.07-.51.73.73,0,0,0-.12-.45.41.41,0,0,0-.37-.16A.69.69,0,0,0,80.56,8.88Z"/><path class="cls-1" d="M87.05,7.07l0,0-.92,3.75a1.23,1.23,0,0,0,0,.21.1.1,0,0,0,.1.11.22.22,0,0,0,.13-.06A.78.78,0,0,0,86.5,11l.13-.2a1.36,1.36,0,0,0,.11-.2l.14.08a1.8,1.8,0,0,1-.4.61.78.78,0,0,1-.55.24c-.21,0-.31-.12-.31-.34a1.2,1.2,0,0,1,0-.31l.2-.7h0c-.09.18-.2.34-.3.5a3.62,3.62,0,0,1-.36.42,1.7,1.7,0,0,1-.41.31,1,1,0,0,1-.46.12.52.52,0,0,1-.29-.07.42.42,0,0,1-.18-.17.81.81,0,0,1-.09-.25,1.29,1.29,0,0,1,0-.29,2,2,0,0,1,.13-.66,2.85,2.85,0,0,1,.37-.74,2.09,2.09,0,0,1,.63-.59,1.57,1.57,0,0,1,.86-.24,1.27,1.27,0,0,1,.28,0,.86.86,0,0,1,.21.07h0l.22-.94a.7.7,0,0,0,0-.14c0-.06,0-.09-.13-.1l-.35,0,0-.13Zm-2.67,4a.23.23,0,0,0,.21.11.44.44,0,0,0,.24-.07,1.1,1.1,0,0,0,.25-.2,2.38,2.38,0,0,0,.26-.28,4,4,0,0,0,.23-.34,5.06,5.06,0,0,0,.36-.74,4.81,4.81,0,0,0,.22-.75A.45.45,0,0,0,86,8.71a.88.88,0,0,0-.24,0,1,1,0,0,0-.6.22,1.75,1.75,0,0,0-.45.55,3.17,3.17,0,0,0-.29.69,2.2,2.2,0,0,0-.1.61A.54.54,0,0,0,84.38,11.06Z"/><path class="cls-1" d="M89.41,10.64a1.68,1.68,0,0,1-.63.64,1.27,1.27,0,0,1-1,.16.82.82,0,0,1-.28-.14.78.78,0,0,1-.22-.3,1.34,1.34,0,0,1-.08-.48,2,2,0,0,1,.13-.73,2,2,0,0,1,.36-.65,1.77,1.77,0,0,1,.57-.49A1.44,1.44,0,0,1,89,8.47a.78.78,0,0,1,.53.17.52.52,0,0,1,.19.42,1,1,0,0,1,0,.28.92.92,0,0,1-.2.28,2,2,0,0,1-.59.36,5.54,5.54,0,0,1-1.07.3v.1a1.21,1.21,0,0,0,.12.59.43.43,0,0,0,.41.22.75.75,0,0,0,.51-.19,3.05,3.05,0,0,0,.46-.48Zm-.59-1A.85.85,0,0,0,89.14,9a.37.37,0,0,0-.09-.25.35.35,0,0,0-.25-.09.62.62,0,0,0-.33.11,1.18,1.18,0,0,0-.31.32,2.2,2.2,0,0,0-.23.46,1.89,1.89,0,0,0-.13.52A2.31,2.31,0,0,0,88.82,9.65Z"/><path class="cls-1" d="M63.65,14.38l-.23,1h-.17c0-.15,0-.25,0-.31a.38.38,0,0,0-.14-.35,1,1,0,0,0-.55-.11h-.71a.13.13,0,0,0-.1,0,.38.38,0,0,0-.06.14l-.33,1.46h.76a1.33,1.33,0,0,0,.32,0,.38.38,0,0,0,.18-.07.33.33,0,0,0,.12-.14,1.83,1.83,0,0,0,.11-.26h.18l-.27,1.22h-.17v-.16a.31.31,0,0,0-.1-.27.74.74,0,0,0-.41-.07h-.77L61,17.71A2.2,2.2,0,0,0,61,18a.22.22,0,0,0,.07.16.51.51,0,0,0,.24.06l.42,0a3,3,0,0,0,.47,0,.87.87,0,0,0,.33-.12.71.71,0,0,0,.25-.24,2.2,2.2,0,0,0,.23-.44h.17l-.3,1h-3l0-.17.33,0a.21.21,0,0,0,.15-.07.72.72,0,0,0,.09-.21l.7-3.09a.66.66,0,0,0,0-.13.13.13,0,0,0-.14-.15l-.35,0,0-.17Z"/><path class="cls-1" d="M65.45,15.63a.4.4,0,0,1,.19.31.25.25,0,0,1-.09.2.28.28,0,0,1-.19.07.16.16,0,0,1-.16-.11c-.12-.27-.28-.41-.47-.41a.32.32,0,0,0-.26.12.37.37,0,0,0-.1.26.53.53,0,0,0,.08.29,1.3,1.3,0,0,0,.33.35,1.88,1.88,0,0,1,.42.45.89.89,0,0,1,.12.45.81.81,0,0,1-.28.63,1,1,0,0,1-.73.25,1.13,1.13,0,0,1-.64-.17.5.5,0,0,1-.24-.38.29.29,0,0,1,.09-.22.26.26,0,0,1,.21-.1c.09,0,.16.06.19.18a.81.81,0,0,0,.22.36.48.48,0,0,0,.31.13.41.41,0,0,0,.3-.12.42.42,0,0,0,.12-.32.71.71,0,0,0-.11-.35,1.07,1.07,0,0,0-.3-.34,1.52,1.52,0,0,1-.37-.4.66.66,0,0,1-.14-.41.84.84,0,0,1,.26-.62,1.13,1.13,0,0,1,1.24-.1Z"/><path class="cls-1" d="M67.16,15.78l-.52,2.13a.78.78,0,0,0,0,.14c0,.09,0,.14.11.14a.29.29,0,0,0,.15-.06l.17-.16.16-.2c.05-.08.1-.14.13-.2l.13.1a2,2,0,0,1-.47.59.91.91,0,0,1-.61.23.29.29,0,0,1-.23-.09.35.35,0,0,1-.08-.24,1.09,1.09,0,0,1,0-.24l.53-2.14h-.49l.06-.22h.48l.07-.29.57-.45.07,0-.2.7H68l-.06.22Z"/><path class="cls-1" d="M71,15.49l-.63,2.38a.82.82,0,0,0,0,.18c0,.09,0,.14.11.14a.19.19,0,0,0,.13-.07.78.78,0,0,0,.15-.16,2.14,2.14,0,0,0,.13-.19,1.37,1.37,0,0,0,.13-.2l.14.09a2.19,2.19,0,0,1-.43.59.78.78,0,0,1-.55.24.29.29,0,0,1-.32-.33,1.33,1.33,0,0,1,.05-.3l.19-.67h0a3.21,3.21,0,0,1-.31.5,2.5,2.5,0,0,1-.38.41,1.81,1.81,0,0,1-.41.29,1,1,0,0,1-.42.1.43.43,0,0,1-.34-.12.47.47,0,0,1-.11-.34,1.55,1.55,0,0,1,.06-.39l.4-1.54a.75.75,0,0,0,0-.17c0-.06,0-.1-.12-.11l-.36,0,0-.14,1.07-.16,0,0-.56,2.15a1,1,0,0,0,0,.28q0,.24.18.24a.65.65,0,0,0,.36-.12,2.61,2.61,0,0,0,.34-.33,2.77,2.77,0,0,0,.31-.45,2.61,2.61,0,0,0,.24-.47,5.27,5.27,0,0,0,.19-.51c.06-.17.13-.42.23-.75Z"/><path class="cls-1" d="M74.75,14.08l0,0-.93,3.76a1,1,0,0,0,0,.2q0,.12.09.12a.22.22,0,0,0,.13-.06,1.17,1.17,0,0,0,.15-.16l.14-.21.11-.19.14.08a2,2,0,0,1-.41.61.79.79,0,0,1-.54.23c-.21,0-.32-.11-.32-.34a1.32,1.32,0,0,1,0-.31l.19-.69h0c-.1.17-.2.34-.31.49a3,3,0,0,1-.35.43,2.07,2.07,0,0,1-.42.31,1.07,1.07,0,0,1-.46.11.65.65,0,0,1-.29-.06.58.58,0,0,1-.18-.17,1.06,1.06,0,0,1-.09-.25,1.37,1.37,0,0,1,0-.29,2.32,2.32,0,0,1,.12-.67,3.06,3.06,0,0,1,.38-.74,2.22,2.22,0,0,1,.63-.59,1.61,1.61,0,0,1,.85-.23l.28,0a.71.71,0,0,1,.21.08l0,0,.22-.94a1.15,1.15,0,0,0,0-.14c0-.05,0-.09-.13-.1l-.35,0,0-.14Zm-2.68,4a.25.25,0,0,0,.22.11.55.55,0,0,0,.23-.07,1.51,1.51,0,0,0,.26-.2,3.53,3.53,0,0,0,.25-.28c.08-.11.16-.23.23-.35a3.94,3.94,0,0,0,.37-.74,4.63,4.63,0,0,0,.21-.74.4.4,0,0,0-.16-.09l-.24,0a.91.91,0,0,0-.6.22,2,2,0,0,0-.46.56,3.48,3.48,0,0,0-.29.69,2.64,2.64,0,0,0-.1.61A.57.57,0,0,0,72.07,18.08Z"/><path class="cls-1" d="M76.26,15.49l0,0-.64,2.35a.81.81,0,0,0,0,.2q0,.12.09.12a.19.19,0,0,0,.13-.06A1.17,1.17,0,0,0,76,18c.05-.07.1-.14.14-.21l.11-.19.14.08a2,2,0,0,1-.41.61.78.78,0,0,1-.54.23.32.32,0,0,1-.25-.09.33.33,0,0,1-.09-.25.66.66,0,0,1,0-.23l.49-1.83a.64.64,0,0,0,0-.15q0-.11-.15-.12l-.34,0,0-.14Zm.2-1.17a.32.32,0,0,1,.09.24.44.44,0,0,1-.1.29.38.38,0,0,1-.28.11.32.32,0,0,1-.23-.09.32.32,0,0,1-.09-.24.4.4,0,0,1,.11-.27.33.33,0,0,1,.27-.12A.36.36,0,0,1,76.46,14.32Z"/><path class="cls-1" d="M78.86,15.54a1.06,1.06,0,0,1,.34.16,1,1,0,0,1,.25.32,1.22,1.22,0,0,1,.09.49,2.43,2.43,0,0,1-.09.61,2.67,2.67,0,0,1-.28.62,1.61,1.61,0,0,1-.55.55,1.36,1.36,0,0,1-.77.2,1.06,1.06,0,0,1-.81-.28,1.1,1.1,0,0,1-.27-.78,2.59,2.59,0,0,1,.08-.55,2.71,2.71,0,0,1,.28-.64,1.74,1.74,0,0,1,.54-.54,1.51,1.51,0,0,1,.82-.21A1.14,1.14,0,0,1,78.86,15.54ZM78,15.9a1.57,1.57,0,0,0-.37.52,3.83,3.83,0,0,0-.22.65,2.84,2.84,0,0,0-.07.6c0,.41.17.62.52.62a.67.67,0,0,0,.5-.23,1.8,1.8,0,0,0,.34-.57,3.62,3.62,0,0,0,.2-.67,2.41,2.41,0,0,0,.07-.51.84.84,0,0,0-.11-.46.45.45,0,0,0-.38-.16A.66.66,0,0,0,78,15.9Z"/><path class="cls-1" d="M81.75,15.63a.4.4,0,0,1,.19.31.25.25,0,0,1-.09.2.28.28,0,0,1-.19.07.17.17,0,0,1-.16-.11c-.12-.27-.28-.41-.47-.41a.34.34,0,0,0-.26.12.37.37,0,0,0-.1.26.55.55,0,0,0,.09.29,1.3,1.3,0,0,0,.33.35,1.81,1.81,0,0,1,.41.45.89.89,0,0,1,.12.45.83.83,0,0,1-.27.63,1,1,0,0,1-.74.25,1.09,1.09,0,0,1-.63-.17.5.5,0,0,1-.24-.38.29.29,0,0,1,.08-.22.27.27,0,0,1,.22-.1c.09,0,.15.06.19.18a.72.72,0,0,0,.21.36.5.5,0,0,0,.31.13.41.41,0,0,0,.31-.12.46.46,0,0,0,.11-.32.62.62,0,0,0-.11-.35,1.17,1.17,0,0,0-.29-.34,1.77,1.77,0,0,1-.38-.4.71.71,0,0,1-.13-.41.83.83,0,0,1,.25-.62,1,1,0,0,1,.69-.24A1,1,0,0,1,81.75,15.63Z"/><path class="cls-1" d="M86.75,16.21l.3-1.35a.32.32,0,0,0,0-.13.14.14,0,0,0-.14-.16l-.35,0,0-.17h1.6l0,.17-.32,0a.19.19,0,0,0-.16.07.54.54,0,0,0-.08.21l-.71,3.08a.66.66,0,0,0,0,.13.14.14,0,0,0,.14.16l.35,0,0,.17h-1.6l0-.17.32,0a.21.21,0,0,0,.15-.07.41.41,0,0,0,.09-.21l.35-1.51h-2l-.33,1.51a.34.34,0,0,0,0,.13.14.14,0,0,0,.14.16l.35,0,0,.17h-1.6l0-.17.32,0a.26.26,0,0,0,.16-.07.54.54,0,0,0,.08-.21l.71-3.08a.62.62,0,0,0,0-.13.14.14,0,0,0-.14-.16l-.35,0,0-.17h1.61l0,.17-.32,0a.19.19,0,0,0-.16.07.54.54,0,0,0-.08.21l-.31,1.35Z"/><path class="cls-1" d="M89.3,15.49l0,0-.63,2.35a.54.54,0,0,0,0,.2c0,.08,0,.12.1.12a.24.24,0,0,0,.13-.06A1.14,1.14,0,0,0,89,18l.14-.21.11-.19.14.08a2,2,0,0,1-.4.61.82.82,0,0,1-.55.23.33.33,0,0,1-.25-.09.33.33,0,0,1-.08-.25,1,1,0,0,1,0-.23l.49-1.83a.64.64,0,0,0,0-.15q0-.11-.15-.12l-.33,0,0-.14Zm.2-1.17a.32.32,0,0,1,.09.24.39.39,0,0,1-.1.29.37.37,0,0,1-.27.11.3.3,0,0,1-.23-.09.32.32,0,0,1-.09-.24.39.39,0,0,1,.1-.27.35.35,0,0,1,.28-.12A.33.33,0,0,1,89.5,14.32Z"/><path class="cls-1" d="M91.66,15.63a.43.43,0,0,1,.19.31.25.25,0,0,1-.09.2.3.3,0,0,1-.19.07.18.18,0,0,1-.17-.11c-.12-.27-.27-.41-.46-.41a.31.31,0,0,0-.26.12.38.38,0,0,0-.11.26.55.55,0,0,0,.09.29,1.3,1.3,0,0,0,.33.35,1.81,1.81,0,0,1,.41.45.81.81,0,0,1,.13.45.84.84,0,0,1-.28.63,1,1,0,0,1-.73.25,1.1,1.1,0,0,1-.64-.17.5.5,0,0,1-.24-.38.29.29,0,0,1,.09-.22.25.25,0,0,1,.21-.1c.09,0,.15.06.19.18a.81.81,0,0,0,.22.36.48.48,0,0,0,.31.13.41.41,0,0,0,.3-.12.42.42,0,0,0,.12-.32A.71.71,0,0,0,91,17.5a1.07,1.07,0,0,0-.3-.34,1.77,1.77,0,0,1-.38-.4.71.71,0,0,1-.13-.41.8.8,0,0,1,.26-.62,1.13,1.13,0,0,1,1.24-.1Z"/><path class="cls-1" d="M93.37,15.78l-.52,2.13a.78.78,0,0,0,0,.14c0,.09,0,.14.11.14a.24.24,0,0,0,.14-.06.85.85,0,0,0,.17-.16,1.63,1.63,0,0,0,.17-.2l.13-.2.13.1a2,2,0,0,1-.47.59.91.91,0,0,1-.61.23.29.29,0,0,1-.23-.09.35.35,0,0,1-.08-.24.71.71,0,0,1,0-.24l.52-2.14h-.48l.06-.22h.48l.07-.29.57-.45.07,0-.2.7h.74l-.06.22Z"/><path class="cls-1" d="M96.17,15.54a1.06,1.06,0,0,1,.34.16.89.89,0,0,1,.25.32,1.22,1.22,0,0,1,.09.49,2.43,2.43,0,0,1-.09.61,2.31,2.31,0,0,1-.28.62,1.61,1.61,0,0,1-.55.55,1.36,1.36,0,0,1-.77.2,1.06,1.06,0,0,1-.81-.28,1.1,1.1,0,0,1-.27-.78,2.59,2.59,0,0,1,.08-.55,2.71,2.71,0,0,1,.28-.64A1.74,1.74,0,0,1,95,15.7a1.51,1.51,0,0,1,.82-.21A1.14,1.14,0,0,1,96.17,15.54Zm-.86.36a1.57,1.57,0,0,0-.37.52,3.83,3.83,0,0,0-.22.65,2.84,2.84,0,0,0-.07.6c0,.41.17.62.52.62a.67.67,0,0,0,.5-.23,1.8,1.8,0,0,0,.34-.57,3.62,3.62,0,0,0,.2-.67,2.41,2.41,0,0,0,.07-.51.84.84,0,0,0-.11-.46.45.45,0,0,0-.38-.16A.66.66,0,0,0,95.31,15.9Zm.29-.76.69-.7a1.47,1.47,0,0,1,.21-.19.27.27,0,0,1,.16-.05.19.19,0,0,1,.15.08.21.21,0,0,1,.08.17.22.22,0,0,1-.08.15.91.91,0,0,1-.24.16l-.89.49Z"/><path class="cls-1" d="M97.34,18.49l.54-2.39c0-.08,0-.14,0-.17s0-.1-.11-.11l-.36,0,0-.14,1-.16,0,0-.27,1h0a2.75,2.75,0,0,1,.52-.74.85.85,0,0,1,.53-.26c.18,0,.26.08.26.25a.46.46,0,0,1-.08.25.24.24,0,0,1-.19.12l-.11,0-.1-.06a.37.37,0,0,0-.2-.07c-.11,0-.24.12-.37.35a4.41,4.41,0,0,0-.36.92c0,.12-.09.35-.17.68s-.1.41-.13.51Z"/><path class="cls-1" d="M100.92,15.49l0,0-.64,2.35a.54.54,0,0,0,0,.2c0,.08,0,.12.1.12a.24.24,0,0,0,.13-.06,1.14,1.14,0,0,0,.14-.16l.14-.21.11-.19.14.08a2,2,0,0,1-.4.61.81.81,0,0,1-.54.23.34.34,0,0,1-.26-.09.33.33,0,0,1-.08-.25,1,1,0,0,1,0-.23l.49-1.83a.64.64,0,0,0,0-.15q0-.11-.15-.12l-.33,0,0-.14Zm.19-1.17a.32.32,0,0,1,.09.24.39.39,0,0,1-.1.29.37.37,0,0,1-.27.11.3.3,0,0,1-.23-.09.32.32,0,0,1-.09-.24.39.39,0,0,1,.1-.27.35.35,0,0,1,.28-.12A.33.33,0,0,1,101.11,14.32Z"/><path class="cls-1" d="M103.58,17.63a1.87,1.87,0,0,1-.63.67,1.4,1.4,0,0,1-.71.19,1.06,1.06,0,0,1-.31,0,.87.87,0,0,1-.26-.16.73.73,0,0,1-.19-.29,1.2,1.2,0,0,1-.07-.44,2.33,2.33,0,0,1,.12-.73,2.41,2.41,0,0,1,.34-.68,1.76,1.76,0,0,1,.54-.48,1.37,1.37,0,0,1,.69-.18.91.91,0,0,1,.54.15.45.45,0,0,1,.22.37.31.31,0,0,1-.13.23.43.43,0,0,1-.25.09c-.1,0-.16,0-.17-.17a.61.61,0,0,0-.11-.36.3.3,0,0,0-.24-.11.58.58,0,0,0-.37.16,1.66,1.66,0,0,0-.32.43,2.4,2.4,0,0,0-.21.57,2.44,2.44,0,0,0-.07.59,1.12,1.12,0,0,0,.11.56.4.4,0,0,0,.4.21.68.68,0,0,0,.27-.07A1.4,1.4,0,0,0,103,18a2.13,2.13,0,0,0,.21-.22l.2-.24Z"/><path class="cls-1" d="M106.09,15.54a1,1,0,0,1,.34.16.89.89,0,0,1,.25.32,1.22,1.22,0,0,1,.09.49,2.43,2.43,0,0,1-.09.61,2.31,2.31,0,0,1-.28.62,1.67,1.67,0,0,1-.54.55,1.42,1.42,0,0,1-.78.2,1.08,1.08,0,0,1-.81-.28,1.1,1.1,0,0,1-.27-.78,2.59,2.59,0,0,1,.08-.55,2.71,2.71,0,0,1,.28-.64,1.74,1.74,0,0,1,.54-.54,1.51,1.51,0,0,1,.82-.21A1.14,1.14,0,0,1,106.09,15.54Zm-.86.36a1.57,1.57,0,0,0-.37.52,5,5,0,0,0-.22.65,2.84,2.84,0,0,0-.07.6c0,.41.17.62.53.62a.67.67,0,0,0,.49-.23,1.8,1.8,0,0,0,.34-.57,3.62,3.62,0,0,0,.2-.67,2.41,2.41,0,0,0,.07-.51.84.84,0,0,0-.11-.46.45.45,0,0,0-.37-.16A.68.68,0,0,0,105.23,15.9Z"/><path class="cls-1" d="M109,15.63a.41.41,0,0,1,.2.31.25.25,0,0,1-.09.2.3.3,0,0,1-.19.07.18.18,0,0,1-.17-.11c-.12-.27-.27-.41-.47-.41a.34.34,0,0,0-.26.12.42.42,0,0,0-.1.26.55.55,0,0,0,.09.29,1.3,1.3,0,0,0,.33.35,1.81,1.81,0,0,1,.41.45.89.89,0,0,1,.12.45.83.83,0,0,1-.27.63,1,1,0,0,1-.74.25,1.09,1.09,0,0,1-.63-.17.5.5,0,0,1-.24-.38.33.33,0,0,1,.08-.22.27.27,0,0,1,.22-.1c.09,0,.15.06.19.18a.8.8,0,0,0,.21.36.5.5,0,0,0,.31.13.4.4,0,0,0,.42-.44.69.69,0,0,0-.1-.35,1.21,1.21,0,0,0-.3-.34,1.77,1.77,0,0,1-.38-.4.71.71,0,0,1-.13-.41.83.83,0,0,1,.25-.62,1,1,0,0,1,.69-.24A1,1,0,0,1,109,15.63Z"/><line class="cls-6" x1="55.26" y1="7.63" x2="55.26" y2="18.67"/></svg>